<svg width="128" height="128" viewBox="0 0 128 128" fill="none" xmlns="http://www.w3.org/2000/svg">
<path d="M68.537 79.657L55.583 66.856L55.736 66.703C64.61 56.809 70.934 45.436 74.657 33.4H89.6V23.2H53.9V13H43.7V23.2H8V33.349H64.967C61.55 43.192 56.144 52.525 48.8 60.685C44.057 55.432 40.13 49.669 37.019 43.6H26.819C30.542 51.913 35.642 59.767 42.017 66.856L16.058 92.458L23.3 99.7L48.8 74.2L64.661 90.061L68.537 79.657ZM97.25 53.8H87.05L64.1 115H74.3L80.012 99.7H104.237L110 115H120.2L97.25 53.8ZM83.888 89.5L92.15 67.417L100.412 89.5H83.888Z" fill="url(#paint0_linear_246_6)"/>
<defs>
<linearGradient id="paint0_linear_246_6" x1="8" y1="64" x2="120.2" y2="64" gradientUnits="userSpaceOnUse">
<stop stop-color="#157B93"/>
<stop offset="0.148878" stop-color="#6E9CF5"/>
<stop offset="0.30138" stop-color="#A3CB5C"/>
<stop offset="0.474917" stop-color="#FBCC04"/>
<stop offset="0.648454" stop-color="#FB8C65"/>
<stop offset="0.816732" stop-color="#EA9EC6"/>
<stop offset="1" stop-color="#B473BC"/>
</linearGradient>
</defs>
</svg>
