<svg width="128" height="128" viewBox="0 0 128 128" fill="none" xmlns="http://www.w3.org/2000/svg">
<path d="M68.6397 80.3727L55.093 66.986L55.253 66.826C64.533 56.4793 71.1463 44.586 75.0397 31.9993H90.6663V21.3327H53.333V10.666H42.6663V21.3327H5.33301V31.946H64.9063C61.333 42.2393 55.6797 51.9993 47.9997 60.5327C43.0397 55.0393 38.933 49.0127 35.6797 42.666H25.013C28.9063 51.3593 34.2397 59.5727 40.9063 66.986L13.7597 93.7593L21.333 101.333L47.9997 74.666L64.5863 91.2527L68.6397 80.3727ZM98.6663 53.3327H87.9997L63.9997 117.333H74.6663L80.6397 101.333H105.973L112 117.333H122.666L98.6663 53.3327ZM84.693 90.666L93.333 67.5727L101.973 90.666H84.693Z" fill="#58CC02"/>
</svg>
